<svg xmlns="http://www.w3.org/2000/svg" viewBox="0 0 750 500"><g id="freepik--background-simple--inject-2"><path d="M684.27,306.36l-1.37-2.26c-11.56-19.05-32.46-30.53-54.5-29.14a58.52,58.52,0,0,0-8.43,1.16c-20,4.29-37.47,19.44-44.7,38.85-4.25,11.41-5.44,24.55-13.5,33.61-10.5,11.79-28.32,12.16-44,11.67s-33.5-.07-43.94,11.76c-6.54,7.41-8.62,18-8.09,27.88,1.39,26.28,19.71,49.78,43,61.46s50.71,12.73,76.2,7.59c35.71-7.19,69.66-27,90.08-57.49S700.6,339.32,684.27,306.36Z" style="fill:#f5f5f5"></path><path d="M35.18,193.43l1.48,1.91c12.46,16.1,32.63,24.37,52.49,20.83a53.1,53.1,0,0,0,7.54-1.93c17.75-6,32-21.52,36.57-39.88,2.68-10.8,2.4-22.86,8.78-31.91,8.32-11.79,24.46-14,38.73-15.15s30.43-3.39,38.69-15.22c5.17-7.4,6-17.19,4.46-26.15-4-23.72-23-43.16-45.39-51.36s-47.36-6.31-70,1C76.88,45.78,48.09,67.24,32.71,97.07S17,165.2,35.18,193.43Z" style="fill:#f5f5f5"></path><circle cx="675.98" cy="205.87" r="37.09" style="fill:#f5f5f5"></circle></g><g id="freepik--Window--inject-2"><rect x="112.29" y="44.39" width="505.78" height="364.08" style="fill:#fff"></rect><rect x="111.66" y="44.39" width="505.78" height="26.91" style="fill:#e0e0e0"></rect><path d="M129.57,58.33a3.31,3.31,0,1,1-3.3-3.5A3.4,3.4,0,0,1,129.57,58.33Z" style="fill:#263238"></path><path d="M141.85,58.33a3.31,3.31,0,1,1-3.31-3.5A3.4,3.4,0,0,1,141.85,58.33Z" style="fill:#263238"></path><path d="M154.12,58.33a3.31,3.31,0,1,1-3.3-3.5A3.39,3.39,0,0,1,154.12,58.33Z" style="fill:#263238"></path><path d="M329.73,100.28c0,.19-11.05.34-24.67.34s-24.67-.15-24.67-.34,11-.35,24.67-.35S329.73,100.08,329.73,100.28Z" style="fill:#263238"></path><path d="M395.36,100.28c0,.19-11.05.34-24.67.34s-24.67-.15-24.67-.34,11-.35,24.67-.35S395.36,100.08,395.36,100.28Z" style="fill:#263238"></path><path d="M461,100.28c0,.19-11.05.34-24.67.34s-24.67-.15-24.67-.34,11-.35,24.67-.35S461,100.08,461,100.28Z" style="fill:#263238"></path><path d="M527.2,100.28c0,.19-11,.34-24.67.34s-24.67-.15-24.67-.34,11.05-.35,24.67-.35S527.2,100.08,527.2,100.28Z" style="fill:#263238"></path><path d="M584.72,108.59s.42,0,1.18-.21a5.5,5.5,0,0,0,2.84-1.85,5.73,5.73,0,0,0,1.12-2.25,11.57,11.57,0,0,0,.18-3.07c-.14-2.19.49-5-1.38-7.12a5.14,5.14,0,0,0-3.52-1.83c-1.41,0-3,0-4.53,0l-10,0-23,0a5.2,5.2,0,0,0-4.61,3,6.15,6.15,0,0,0-.58,2.88v3.09a11.56,11.56,0,0,0,.18,2.92,5.6,5.6,0,0,0,1.3,2.41A5.26,5.26,0,0,0,546,108a8.15,8.15,0,0,0,2.58.25l18.79.07,12.67.11,3.45.07.89,0c.21,0,.31,0,.31,0a1.2,1.2,0,0,1-.31,0l-.89,0-3.45.07-12.67.11-18.79.07a8.26,8.26,0,0,1-2.76-.26,5.88,5.88,0,0,1-2.45-1.58,6.2,6.2,0,0,1-1.46-2.69,6.45,6.45,0,0,1-.2-1.58c0-.51,0-1,0-1.52V98.18a6.71,6.71,0,0,1,.64-3.19,5.83,5.83,0,0,1,5.19-3.37l23,0,10,0c1.58,0,3.08,0,4.57,0a5.63,5.63,0,0,1,3.82,2,6.15,6.15,0,0,1,1.42,3.83c0,1.27,0,2.48,0,3.61a11.57,11.57,0,0,1-.24,3.16,5.91,5.91,0,0,1-1.23,2.34,5.43,5.43,0,0,1-3,1.8A3.83,3.83,0,0,1,584.72,108.59Z" style="fill:#263238"></path><rect x="150.65" y="195.5" width="153.18" height="31.41" rx="8.61" style="fill:#e0e0e0"></rect><path d="M111.66,44.39l505.79-.25h.26v.25c0,109.86,0,233.6,0,364v.33h-.28l-505.79-.05h-.23v-.23c.14-221,.23-362.19.23-364.09,0,1.9.1,143.11.23,364.09l-.23-.23,505.79-.06-.28.29v-.05c0-130.44,0-254.18,0-364l.26.26Z" style="fill:#263238"></path><path d="M574.31,260.74s0-.64,0-1.86,0-3,0-5.38c0-4.73,0-11.69,0-20.62,0-17.85-.06-43.59-.11-75.22l.2.2L393,157.92h0l.26-.26c0,36.46,0,71.32,0,103.07l-.25-.24,130.41.12,37.44.07,10,0h2.58l.88,0h-3.4l-9.93,0-37.39.07L393,261h-.24v-.25c0-31.75,0-66.61,0-103.07v-.26H393l181.27.06h.2v.2c0,31.68-.08,57.47-.1,75.34,0,8.92,0,15.85,0,20.57,0,2.35,0,4.14,0,5.35S574.31,260.74,574.31,260.74Z" style="fill:#E74C3C"></path><path d="M570.39,157.52l-.44.3-1.3.83-5,3.14c-4.37,2.71-10.72,6.61-18.59,11.37-15.73,9.55-37.6,22.53-62,36.48s-46.66,26.21-62.85,35c-8.1,4.38-14.67,7.89-19.22,10.28l-5.25,2.75-1.37.71a5,5,0,0,1-.47.22,5,5,0,0,1,.45-.27l1.34-.75,5.2-2.84L420,244.28c16.15-8.83,38.39-21.15,62.77-35.1s46.26-26.87,62-36.33l18.68-11.24,5.08-3.05,1.33-.78C570.23,157.6,570.39,157.52,570.39,157.52Z" style="fill:#E74C3C"></path><path d="M572.22,260.74c-.07.12-39.85-22.66-88.83-50.87s-88.64-51.2-88.57-51.32,39.84,22.65,88.83,50.87S572.29,260.61,572.22,260.74Z" style="fill:#E74C3C"></path><path d="M570.62,312c0,.2-39.62.36-88.47.36s-88.49-.16-88.49-.36,39.61-.37,88.49-.37S570.62,311.79,570.62,312Z" style="fill:#263238"></path><path d="M570.62,322.72c0,.2-39.62.36-88.47.36s-88.49-.16-88.49-.36,39.61-.37,88.49-.37S570.62,322.52,570.62,322.72Z" style="fill:#263238"></path><path d="M472.59,349.42c0,.19-17.37.34-38.78.34s-38.79-.15-38.79-.34,17.36-.33,38.79-.33S472.59,349.24,472.59,349.42Z" style="fill:#263238"></path><path d="M548.19,336.49c0,.18-34.29.33-76.58.33s-76.59-.15-76.59-.33,34.28-.34,76.59-.34S548.19,336.3,548.19,336.49Z" style="fill:#263238"></path><path d="M593.93,369.26s0-.5,0-1.45,0-2.36,0-4.21c0-3.71,0-9.18,0-16.24,0-14.1-.05-34.58-.09-60.1l.18.17-220.25.09h0l.26-.26c0,28.62,0,56.31,0,82l-.25-.25,157.81.11,45.89.07,12.29,0h3.18l1.09,0h-1.06l-3.15,0-12.24,0-45.83.07-158,.12h-.25v-.25c0-25.69,0-53.38,0-82V287h.27l220.25.08h.17v.18c0,25.56-.07,46.08-.09,60.21,0,7,0,12.49,0,16.19,0,1.84,0,3.24,0,4.19S593.93,369.26,593.93,369.26Z" style="fill:#263238"></path><ellipse cx="158.68" cy="101.16" rx="11.21" ry="10.71" style="fill:#E74C3C"></ellipse><rect x="75.58" y="230.89" width="79.21" height="55.11" style="fill:#455a64"></rect><path d="M154.78,230.89c.09.12-17.55,12.66-39.38,28S75.79,286.6,75.7,286.48s17.55-12.66,39.4-28S154.7,230.77,154.78,230.89Z" style="fill:#263238"></path><path d="M154.78,286l-.21-.12-.61-.4-2.3-1.57L143.27,278l-27.6-19.51L88.17,238.9l-8.3-6-2.24-1.66c-.24-.17-.43-.32-.58-.44l-.19-.16s.08,0,.22.12l.61.4,2.3,1.57,8.39,5.86L116,258.11l27.5,19.63,8.3,6,2.24,1.65.58.44C154.73,285.93,154.79,286,154.78,286Z" style="fill:#263238"></path></g><g id="freepik--speech-bubble--inject-2"><path d="M209.16,155.51l-11.2-5.7a29.26,29.26,0,1,0-1.55,10.38h0Z" style="fill:#fff"></path><path d="M209.16,155.51l-12.71,4.81a.11.11,0,0,1-.16-.07.13.13,0,0,1,0-.06h0l.25,0a29.25,29.25,0,0,1-8.45,12.7,25.25,25.25,0,0,1-3.74,2.75c-.69.41-1.37.84-2.1,1.23L180,178a29.56,29.56,0,0,1-21.76.29,29.25,29.25,0,0,1-10.38-6.72,29.83,29.83,0,0,1-6.9-11.07A29,29,0,0,1,139.52,147a29.44,29.44,0,0,1,5-13,29.83,29.83,0,0,1,9.85-8.93,29,29,0,0,1,12-3.67,29.63,29.63,0,0,1,21,6.63,31.21,31.21,0,0,1,6.31,7.25,29.17,29.17,0,0,1,4.35,14.54l-.07-.11,11.14,5.81-11.26-5.59a.11.11,0,0,1-.06-.11,29.06,29.06,0,0,0-4.4-14.35,31.44,31.44,0,0,0-6.27-7.13,29.33,29.33,0,0,0-20.74-6.46,28.41,28.41,0,0,0-11.82,3.63,29.45,29.45,0,0,0-9.68,8.78A29,29,0,0,0,140,147a28.47,28.47,0,0,0,1.37,13.29,29.35,29.35,0,0,0,6.78,10.89,28.66,28.66,0,0,0,10.19,6.62,29.21,29.21,0,0,0,21.44-.22l2.24-1c.71-.39,1.39-.81,2.08-1.21a25.88,25.88,0,0,0,3.7-2.7,29.09,29.09,0,0,0,8.45-12.51.13.13,0,0,1,.16-.08.14.14,0,0,1,.09.14h0l-.18-.13Z" style="fill:#263238"></path><path d="M175.36,157.16a3,3,0,0,1,.45-.51l1.31-1.32c1.11-1.09,2.66-2.6,4.39-4.24l0,0v.22c-1.74-1.61-3.3-3.09-4.42-4.16l-1.31-1.29a3.65,3.65,0,0,1-.46-.5s.21.13.54.41l1.38,1.22c1.15,1,2.74,2.48,4.48,4.1l.11.11-.11.11,0,0c-1.73,1.64-3.3,3.12-4.45,4.18l-1.37,1.24A3,3,0,0,1,175.36,157.16Z" style="fill:#263238"></path><path d="M175.36,157.29a.14.14,0,0,1-.09,0h0c-.09-.1-.06-.14.45-.68l1.31-1.31c1.13-1.12,2.62-2.56,4.22-4.09-1.58-1.46-3.06-2.86-4.21-4l-1.31-1.29c-.5-.5-.56-.57-.46-.68s.16,0,.71.41l1.38,1.22c1.18,1,2.69,2.44,4.29,3.92l0,0v0l.17.16.22.2-.26.24-.12.12v0l0,0c-1.63,1.55-3.16,3-4.31,4L176,156.83C175.59,157.17,175.44,157.29,175.36,157.29Zm6.07-6-3.37,3.25c1-.92,2.17-2,3.41-3.21h0Zm.24-.19v0l0,0Zm-3.58-3.29c1,.94,2.14,2,3.34,3.14l0,0C180.26,149.83,179.09,148.76,178.09,147.85Z" style="fill:#263238"></path><path d="M161.94,145.32a2.41,2.41,0,0,1-.45.51l-1.3,1.31c-1.12,1.1-2.67,2.6-4.39,4.25l0,0v-.22c1.74,1.61,3.3,3.08,4.42,4.16l1.31,1.29c.31.3.47.48.45.5a4.13,4.13,0,0,1-.53-.42L160,155.53c-1.16-1-2.74-2.49-4.48-4.1l-.12-.11.12-.11,0,0c1.72-1.65,3.3-3.12,4.45-4.18l1.37-1.25A3.22,3.22,0,0,1,161.94,145.32Z" style="fill:#263238"></path><path d="M162,157.29c-.08,0-.22-.11-.62-.45L160,155.62c-1.16-1-2.68-2.42-4.29-3.92l0,0v0l-.17-.16-.22-.2.25-.24.13-.12v0l0,0c1.63-1.55,3.15-3,4.3-4.05l1.38-1.24c.54-.47.6-.52.7-.42s0,.18-.45.69l-1.31,1.31c-1.12,1.11-2.61,2.55-4.21,4.08,1.59,1.49,3.08,2.89,4.2,4l1.32,1.29c.5.51.55.56.46.67A.14.14,0,0,1,162,157.29Zm-6.11-5.77c1.22,1.14,2.38,2.2,3.38,3.1l-3.34-3.13Zm-.23-.2h0v0Zm.22-.21h0l0,0c1.23-1.17,2.4-2.29,3.38-3.25C158.25,148.82,157.07,149.93,155.83,151.11Z" style="fill:#263238"></path><path d="M165.39,160c-.08,0,1.33-4,3.14-8.85s3.36-8.76,3.43-8.73-1.33,4-3.14,8.84S165.47,160,165.39,160Z" style="fill:#263238"></path><path d="M165.4,160.08l-.06,0h0c-.15-.05-.17-.06.79-2.77.6-1.67,1.41-3.88,2.29-6.23s1.71-4.55,2.36-6.2c1.05-2.67,1.08-2.67,1.23-2.61s.17.06-.79,2.77c-.6,1.67-1.41,3.89-2.29,6.23s-1.71,4.55-2.36,6.21C165.65,159.78,165.52,160.08,165.4,160.08Zm5.15-13.93c-.53,1.37-1.17,3.06-1.9,5s-1.35,3.64-1.85,5c.53-1.36,1.17-3,1.9-5S170.05,147.53,170.55,146.15Z" style="fill:#263238"></path></g><g id="freepik--Character--inject-2"><path d="M243.12,126.73a12.22,12.22,0,0,1,10.77-10.24,16.08,16.08,0,0,0,4.17-.47,25.33,25.33,0,0,0,3-1.71,8.16,8.16,0,0,1,10,2.08c2.14,2.74,3-1.07,8.06,1.93,4.19,2.49,2,6,2,6a9.37,9.37,0,0,1,9.3,7.42c.5,2.7-.05,6,2.05,7.74,1,.86,2.44,1.09,3.5,1.91,1.95,1.51,2,4.43,1.58,6.86s-1.2,5-.3,7.3c1.48,3.78,6.86,5.27,7.52,9.27.31,1.89-.48,4.16.83,5.55a6.53,6.53,0,0,0,2,1.16,8.55,8.55,0,0,1,.32,15.18c-.76.42-1.67.8-2,1.62s.28,1.86.71,2.73a8.21,8.21,0,0,1-11.69,10.65,12.85,12.85,0,0,1-7.55,6,7.81,7.81,0,0,1-4.49.12,9,9,0,0,1-3.08-1.9c-4.37-3.81-10.5-9.64-10.91-15.42" style="fill:#263238"></path><path d="M344,194.91l-26.2,24c-3.25-.75-43.14-24.6-43.14-24.6L268.38,225s40.83,18.77,52.06,16.5c1.84-.38,4.85-.61,6.74-3,9-11.55,28.06-40.13,28.06-40.13Z" style="fill:#ffbe9d"></path><path d="M356.69,168.5c-1.73.71-7.91,11.13-7.91,11.13l-1.55.08a4.92,4.92,0,0,0-4.62,5.51c.51,4.34,1.42,9.69,1.42,9.69l8.64,3.94,2.57-.54c2.38-.12,4.7-5,6.17-8.38s-.94-4.09-.94-4.09c0-3.39-2.87-2.72-2.87-2.72a3,3,0,0,0-3.09-2.94s3.83-7,4.58-9.49S358.42,167.8,356.69,168.5Z" style="fill:#ffbe9d"></path><path d="M357.43,183.12a16.72,16.72,0,0,1-.9,2.19,9,9,0,0,1-.54,1.08,4.83,4.83,0,0,1-.94,1.05,3.37,3.37,0,0,1-1.41.72,2.13,2.13,0,0,1-1.67-.4,1.48,1.48,0,0,1-.49-.77,2.14,2.14,0,0,1,0-.87,8.73,8.73,0,0,1,.44-1.47A19,19,0,0,1,353,182.3a14,14,0,0,1,.91-1.47,2,2,0,0,1,.4-.5c.05,0-.46.78-1.1,2.08a21.51,21.51,0,0,0-1,2.35,9.31,9.31,0,0,0-.41,1.42,1.35,1.35,0,0,0,.41,1.31,1.8,1.8,0,0,0,1.4.33,3.06,3.06,0,0,0,1.26-.63,4.49,4.49,0,0,0,.9-1,7.46,7.46,0,0,0,.56-1A15.65,15.65,0,0,1,357.43,183.12Z" style="fill:#eb996e"></path><path d="M360.37,185.36a2.32,2.32,0,0,1-.14.6,13.49,13.49,0,0,1-.57,1.57,7.77,7.77,0,0,1-1.31,2.14,3.31,3.31,0,0,1-1.2.92,1.51,1.51,0,0,1-2.16-1.74,7.37,7.37,0,0,1,.4-1.44,21.56,21.56,0,0,1,.93-2.29c.3-.64.57-1.15.77-1.49a1.86,1.86,0,0,1,.34-.51c.05,0-.35.8-.89,2.09-.27.65-.57,1.43-.85,2.3a6.36,6.36,0,0,0-.36,1.38,1.18,1.18,0,0,0,1.69,1.39,3.23,3.23,0,0,0,1.1-.83,7.74,7.74,0,0,0,1.32-2C360,186.17,360.32,185.34,360.37,185.36Z" style="fill:#eb996e"></path><path d="M361.9,187.87a3.94,3.94,0,0,1-.34,1.61,8,8,0,0,1-.79,1.62,4.7,4.7,0,0,1-.66.86,1.35,1.35,0,0,1-1.18.39,1.13,1.13,0,0,1-.82-.94,2.89,2.89,0,0,1,.06-1.11,7.3,7.3,0,0,1,.64-1.68,13.66,13.66,0,0,1,.77-1.45,5.65,5.65,0,0,1-.55,1.55,8.17,8.17,0,0,0-.55,1.65,2.88,2.88,0,0,0,0,1,.83.83,0,0,0,.56.68,1,1,0,0,0,.88-.31,4.25,4.25,0,0,0,.62-.78,9.64,9.64,0,0,0,.84-1.54C361.73,188.48,361.85,187.86,361.9,187.87Z" style="fill:#eb996e"></path><path d="M347.23,179.71a74.68,74.68,0,0,1,7.64.07,2.79,2.79,0,0,1-1.52,3.3,7.91,7.91,0,0,1-3.9.56,5,5,0,0,1-.11,7.4" style="fill:#ffbe9d"></path><path d="M349.34,191a6.42,6.42,0,0,0,1.25-1.94,4.89,4.89,0,0,0-1.25-5.34l-.32-.3h.44a8.43,8.43,0,0,0,3.49-.4c1.35-.52,2.26-2.06,1.77-3.23l.14.1c-2.23-.17-4.14-.17-5.49-.19H347.8a2.12,2.12,0,0,1-.57,0,2.37,2.37,0,0,1,.56-.07c.37,0,.9-.06,1.58-.08,1.35,0,3.26-.08,5.51.06h.1l0,.1a2.48,2.48,0,0,1-.2,2.15,3.53,3.53,0,0,1-1.73,1.52,8.68,8.68,0,0,1-3.65.41l.12-.28a5.11,5.11,0,0,1,1.56,3,5,5,0,0,1-.34,2.65,4.88,4.88,0,0,1-1,1.47A1.76,1.76,0,0,1,349.34,191Z" style="fill:#eb996e"></path><path d="M297.21,453.7a2.18,2.18,0,0,0,.39-.87,6.13,6.13,0,0,0,.21-2.58,3,3,0,0,0-.21-.88,1.06,1.06,0,0,0-.85-.69.79.79,0,0,0-.64.22,1,1,0,0,0-.26.59,6.39,6.39,0,0,0,0,1.08c.06.73.06,1.42.17,2.27a1.36,1.36,0,0,0,.89,1.07,2.83,2.83,0,0,0,1.35.06,11.05,11.05,0,0,0,2.35-.7,10.26,10.26,0,0,0,1.05-.52,3,3,0,0,0,.95-.72,1,1,0,0,0,0-1.28,1.23,1.23,0,0,0-1.15-.27,6.91,6.91,0,0,0-1.68.69,9.12,9.12,0,0,0-2.08,1.54c-.43.43-.62.72-.59.74a17.72,17.72,0,0,1,2.85-1.92,7.26,7.26,0,0,1,1.58-.59c.28,0,.58,0,.69.14a.51.51,0,0,1-.06.64,2.88,2.88,0,0,1-.8.56c-.32.17-.66.33-1,.48a10.75,10.75,0,0,1-2.24.65,2.2,2.2,0,0,1-1.06,0,.77.77,0,0,1-.53-.66c-.11-.69-.13-1.49-.2-2.18a7.19,7.19,0,0,1-.05-1c0-.28.16-.42.36-.4.47,0,.63.65.71,1.16A8.79,8.79,0,0,1,297.21,453.7Z" style="fill:#263238"></path><path d="M339.78,413.5a2.12,2.12,0,0,0,0-.95,6.32,6.32,0,0,0-1-2.41,2.94,2.94,0,0,0-.57-.69,1.06,1.06,0,0,0-1.07-.25.79.79,0,0,0-.48.48,1.06,1.06,0,0,0,0,.64,5.88,5.88,0,0,0,.5,1c.37.63.67,1.25,1.15,2a1.38,1.38,0,0,0,1.27.57,2.67,2.67,0,0,0,1.23-.55,10.29,10.29,0,0,0,2.52-2.59,3.31,3.31,0,0,0,.54-1.06,1,1,0,0,0-.55-1.16,1.19,1.19,0,0,0-1.14.25,7,7,0,0,0-1.21,1.37,9.28,9.28,0,0,0-1.18,2.3,2.37,2.37,0,0,0-.21.92,19.24,19.24,0,0,1,1.71-3,7,7,0,0,1,1.16-1.22.73.73,0,0,1,.68-.18.5.5,0,0,1,.22.59,2.69,2.69,0,0,1-.46.86,9.4,9.4,0,0,1-.69.87,10,10,0,0,1-1.72,1.57,2.2,2.2,0,0,1-1,.45.79.79,0,0,1-.77-.36c-.4-.57-.78-1.28-1.14-1.87a6,6,0,0,1-.48-.87c-.1-.27,0-.44.14-.52.44-.18.86.31,1.15.73A9.2,9.2,0,0,1,339.78,413.5Z" style="fill:#263238"></path><polygon points="310.13 423.26 297.93 449.71 278.24 440.61 290.86 407.88 310.13 423.26" style="fill:#ffbe9d"></polygon><path d="M300.24,447.94l-7.13,13.6s18.25,18.87,16.53,23.08l-42.9-20.57,11.79-27.26Z" style="fill:#455a64"></path><path d="M280.73,453.32a1.94,1.94,0,0,0-2.17,1.42A1.86,1.86,0,0,0,280,456.9a2.05,2.05,0,0,0,2.29-1.52,2,2,0,0,0-1.69-2.09" style="fill:#e0e0e0"></path><g style="opacity:0.6000000000000001"><path d="M266.74,464.05l1.79-3.42,40.46,21s1.51,1.75.65,3Z" style="fill:#fff"></path></g><path d="M293.91,461.65c-.11.21-1.2-.2-2.56,0s-2.32.8-2.48.62.74-1.24,2.39-1.42S294,461.48,293.91,461.65Z" style="fill:#263238"></path><path d="M297.51,465.67c-.05.23-1.12.15-2.26.69s-1.79,1.39-2,1.28.23-1.36,1.66-2S297.6,465.47,297.51,465.67Z" style="fill:#263238"></path><path d="M297.49,472.28c-.21,0,0-1.23,1.08-2.12s2.29-.88,2.29-.66-.89.54-1.77,1.28S297.7,472.36,297.49,472.28Z" style="fill:#263238"></path><path d="M296,456.41c-.18.15-1-.6-2.22-1.08s-2.33-.56-2.35-.79,1.22-.56,2.65,0S296.13,456.3,296,456.41Z" style="fill:#263238"></path><path d="M310.41,432.34,341.49,355s-.72-13.74-3.25-18.07-79.15-29.64-79.15-29.64-19.52-4.7-32.53,0-22.77,21-21,30S215,353,215,353l56.34,1.68,30.72,11.2L281.4,425.11S292,436.68,310.41,432.34Z" style="fill:#263238"></path><polygon points="337.93 380.49 338.66 409.6 316.98 410.13 313.85 375.19 337.93 380.49" style="fill:#ffbe9d"></polygon><path d="M340,407l-.4,15.35s24.71,8.87,25,13.41l-47.57.49-1.46-29.68Z" style="fill:#455a64"></path><path d="M324.82,420.43a2,2,0,0,0-1.32,2.24,1.87,1.87,0,0,0,2.2,1.32,2.06,2.06,0,0,0,1.39-2.37,1.94,1.94,0,0,0-2.44-1.12" style="fill:#e0e0e0"></path><g style="opacity:0.6000000000000001"><path d="M317,436.25l.09-3.86,45.58,1s2.13.9,1.9,2.39Z" style="fill:#fff"></path></g><path d="M340.32,422.1c0,.23-1.16.35-2.3,1.11s-1.73,1.74-1.95,1.65.12-1.44,1.51-2.33S340.37,421.88,340.32,422.1Z" style="fill:#263238"></path><path d="M345.33,424.11c.06.22-.94.63-1.72,1.62s-1,2-1.23,2-.39-1.33.6-2.54S345.33,423.89,345.33,424.11Z" style="fill:#263238"></path><path d="M348.23,430.05c-.21.06-.55-1.1,0-2.38s1.66-1.8,1.76-1.6-.56.88-1,1.93S348.46,430,348.23,430.05Z" style="fill:#263238"></path><path d="M339.85,416.49c-.1.22-1.17-.09-2.48,0s-2.33.53-2.45.33.85-1,2.4-1.14S340,416.31,339.85,416.49Z" style="fill:#263238"></path><path d="M325.27,299.65s13-1,14.44,13.06,2.86,79.87,2.86,79.87l-30.35,2.53-4.7-67.22-48.43-20.6S316.6,297.85,325.27,299.65Z" style="fill:#263238"></path><path d="M271.72,280.63s7.89,22.11,6.39,24.57-21.78,12.6-21.78,12.6L205.6,337.29s-5.21-8.29-5.21-21S218,280.63,218,280.63Z" style="fill:#263238"></path><path d="M256.69,306.16s.07,0,.23.13l.72.33,2.81,1.25,10.55,4.6,36.41,15.67-.16-.23c.46,6.64.95,13.81,1.47,21.23,1.23,17.35,2.37,33.34,3.27,46l0,.23.22,0,22.12-1.94,6.09-.57,1.59-.17a2.15,2.15,0,0,0,.54-.08l-.54,0-1.6.1-6.1.44-22.13,1.75.24.21c-.87-12.66-2-28.65-3.16-46-.52-7.42-1-14.59-1.49-21.23v-.17l-.16-.06-36.48-15.49-10.61-4.45-2.85-1.16-.74-.29A.84.84,0,0,0,256.69,306.16Z" style="fill:#455a64"></path><path d="M216.34,308.37a6.75,6.75,0,0,0,1.42-.39l3.82-1.23a83.29,83.29,0,0,1,12.79-3.23,37.6,37.6,0,0,1,13.08.17,52.12,52.12,0,0,1,5.25,1.52,6.56,6.56,0,0,0-1.32-.67,23.82,23.82,0,0,0-3.84-1.24,35.35,35.35,0,0,0-13.26-.34,71.07,71.07,0,0,0-12.83,3.41c-1.6.57-2.88,1.06-3.76,1.41A7.29,7.29,0,0,0,216.34,308.37Z" style="fill:#455a64"></path><path d="M223.51,296.72a36.27,36.27,0,0,1,4.43,0c1.37.09,3,.3,4.81.51s3.79.46,5.84.85a27.23,27.23,0,0,1,9.94,3.68,31.75,31.75,0,0,1,3.45,2.78,3.9,3.9,0,0,0-.74-.95,15.16,15.16,0,0,0-2.48-2.16,25.55,25.55,0,0,0-10.06-3.91c-2.08-.39-4.08-.62-5.9-.81s-3.45-.35-4.83-.39a18.1,18.1,0,0,0-3.29.14A4,4,0,0,0,223.51,296.72Z" style="fill:#455a64"></path><path d="M273,193.54a16.39,16.39,0,0,1,8.42,7.32c3.17,5.6,2.32,8.37,1.5,11.68s-2.29,9.88-2.37,9.46S273,193.54,273,193.54Z" style="fill:#ffbe9d"></path><polygon points="272.62 193.53 265.97 189.59 228.47 188.6 241.1 230.02 263.94 244.41 277.48 237.63 278.83 222.58 272.62 193.53" style="fill:#ffbe9d"></polygon><path d="M273,193.54s8.62,27.66,8.42,35.58-3.48,30.42-3.1,34.85-1.17,16.66-6.58,16.66H218s-12.12-3.35-12.65-10.64,9.33-69.61,9.33-69.61S221.56,190,226,189.09s12.68-2.78,15.65,6.41,3.94,13.9,10.27,20.24,15.36,13.45,15.36,13.45,7.28-6.09,7.6-14.33-2.75-21.59-2.75-21.59Z" style="fill:#E74C3C"></path><path d="M265,281.23a5.06,5.06,0,0,0,2.12-1.12,12.8,12.8,0,0,0,3.59-4.55,24.51,24.51,0,0,0,1.83-5.49,8.57,8.57,0,0,0,.37-2.35,11.25,11.25,0,0,0-.76,2.25,34.5,34.5,0,0,1-1.94,5.34,14.54,14.54,0,0,1-3.34,4.49C265.81,280.75,265,281.14,265,281.23Z" style="fill:#263238"></path><path d="M236.61,246.94a4.19,4.19,0,0,0,.9.76,15.88,15.88,0,0,0,2.78,1.62,16.64,16.64,0,0,0,4.58,1.38,15.85,15.85,0,0,0,5.86-.25,19.39,19.39,0,0,0,9.12-5.29,23.21,23.21,0,0,0,2.09-2.44,4.46,4.46,0,0,0,.63-1c-.08-.07-1.05,1.3-3,3.14a20.11,20.11,0,0,1-9,5,16.42,16.42,0,0,1-10.15-.93C238,247.91,236.67,246.85,236.61,246.94Z" style="fill:#263238"></path><path d="M265.69,280.23c.11.1.85-.75,1.1-2.07s-.1-2.38-.24-2.33a17.54,17.54,0,0,0-.31,2.22C266,279.25,265.55,280.15,265.69,280.23Z" style="fill:#263238"></path><g style="opacity:0.30000000000000004"><path d="M261.67,243a15.58,15.58,0,0,1-5.51,10.55A13,13,0,0,1,244.67,256a11.12,11.12,0,0,1-7.85-8.53,33.07,33.07,0,0,0,8.57,3,16.84,16.84,0,0,0,16.54-7.81l-.44.46"></path></g><g style="opacity:0.30000000000000004"><path d="M273,268.56a12,12,0,0,1-3.83,11.21,2.59,2.59,0,0,1-2.41.81,28.67,28.67,0,0,0,6.18-12.27"></path></g><path d="M200.39,230.7l27.05,12.69s11-24.4,12-27.74,3.92-8.61.87-15.57-10.73-10.83-15.83-9C212.53,195.23,200.39,230.7,200.39,230.7Z" style="fill:#E74C3C"></path><path d="M278.83,230.62c1.26,0,15.77,7.59,15.77,7.59l8.26-27.36c-12.34-8.22-24.94-16.77-32.16-18.71L277,213.91Z" style="fill:#E74C3C"></path><path d="M224.79,241.67c-5.13,8.42-8.7,13.26-8.7,13.26l46,28-5.35,12.44-59.6-24.53s-5.88-6-3.8-12.78l9.5-26.23Z" style="fill:#ffbe9d"></path><path d="M204.91,259.21a39.29,39.29,0,0,1,5.5-2.86,38.94,38.94,0,0,1,6-1.42,14.84,14.84,0,0,0-11.53,4.28Z" style="fill:#eb996e"></path><path d="M200.39,230.7a3,3,0,0,1,.53.19l1.5.64,5.47,2.43,18,8.18,2.19,1-.35.13c3.13-6.44,5.86-12.2,7.8-16.35.94-2,1.7-3.69,2.26-4.92.25-.53.45-1,.61-1.33a3.76,3.76,0,0,1,.24-.45,1.48,1.48,0,0,1-.15.49c-.11.32-.28.78-.52,1.37-.47,1.18-1.19,2.88-2.12,5-1.85,4.2-4.53,10-7.65,16.43l-.11.23-.23-.11-2.19-1-17.9-8.33-5.39-2.58-1.46-.72A1.89,1.89,0,0,1,200.39,230.7Z" style="fill:#263238"></path><path d="M277.16,205.87a7.36,7.36,0,0,1,.63,1.29,27.91,27.91,0,0,1,1.23,3.71,67.77,67.77,0,0,1,1.85,12.73,90.13,90.13,0,0,1-.12,12.86c-.14,1.64-.33,3-.49,3.87a7,7,0,0,1-.32,1.4,8.29,8.29,0,0,1,.12-1.43c.09-.91.23-2.23.32-3.87a109.09,109.09,0,0,0,0-12.8A77.65,77.65,0,0,0,278.66,211a37.2,37.2,0,0,0-1.06-3.73A8.15,8.15,0,0,1,277.16,205.87Z" style="fill:#263238"></path><path d="M297.69,291.44,286.23,286l-22.36-1.77L262,282.91l-5.35,12.44s5.86,2.81,8.93,3.06l18.81-.57,9.83,1Z" style="fill:#ffbe9d"></path><path d="M283.33,147.87a4.88,4.88,0,0,0,2,0,11.9,11.9,0,0,0,4.57-1.76,11.78,11.78,0,0,0,3.47-3.44,5,5,0,0,0,.86-1.83,15.49,15.49,0,0,0-1.17,1.61,13.71,13.71,0,0,1-7.8,5A15.34,15.34,0,0,0,283.33,147.87Z" style="fill:#455a64"></path><path d="M280.4,134.58s.4.61,1.31,1.31a11.54,11.54,0,0,0,8.53,2.17,4.16,4.16,0,0,0,1.78-.52c0-.18-2.81.62-6.12-.25A18.46,18.46,0,0,1,280.4,134.58Z" style="fill:#455a64"></path><path d="M301.88,200.38l.18,0c.12,0,.29-.07.52-.15a6.51,6.51,0,0,0,1.81-1,7,7,0,0,0,2.06-2.55,6.86,6.86,0,0,0,.5-4.31A7,7,0,0,0,306,190a9.49,9.49,0,0,0-1.85-2.06,9.37,9.37,0,0,1-1.91-2.07,2.87,2.87,0,0,1-.09-2.73,13.91,13.91,0,0,1,1.88-2.55,9,9,0,0,0,1-1.41,5.59,5.59,0,0,0,.57-1.7,6,6,0,0,0-3.26-6.17,19.74,19.74,0,0,0-3.56-.82,4.13,4.13,0,0,1-1.5-.64,2.45,2.45,0,0,1-.88-1.27,5,5,0,0,1,.35-3.12c.41-1,1-1.94,1.35-2.95a4.77,4.77,0,0,0,.21-3.18,5,5,0,0,0-1.8-2.4,13.79,13.79,0,0,0-4.84-2,10.62,10.62,0,0,1-3.83-1.75,4.76,4.76,0,0,1-1.6-2.65,3,3,0,0,1,.19-2c.2-.42.39-.59.36-.61a1.66,1.66,0,0,0-.46.56,3,3,0,0,0-.3,2,4.89,4.89,0,0,0,1.61,2.86,10.88,10.88,0,0,0,3.91,1.88,13.72,13.72,0,0,1,4.68,2,4.55,4.55,0,0,1,1.62,2.19,4.23,4.23,0,0,1-.22,2.85c-.37,1-.92,1.88-1.36,2.93a5.46,5.46,0,0,0-.38,3.47,2.92,2.92,0,0,0,1.06,1.55,4.64,4.64,0,0,0,1.71.74,20.23,20.23,0,0,1,3.45.79,5.46,5.46,0,0,1,3,5.59,5.29,5.29,0,0,1-.5,1.53,9.34,9.34,0,0,1-.93,1.33,13.42,13.42,0,0,0-1.92,2.67,3.35,3.35,0,0,0,.12,3.18,10.07,10.07,0,0,0,2,2.17,9,9,0,0,1,1.79,1.94,7.08,7.08,0,0,1,.92,2.24,6.54,6.54,0,0,1-.41,4.1,7,7,0,0,1-1.91,2.51A9.09,9.09,0,0,1,301.88,200.38Z" style="fill:#455a64"></path><path d="M242.38,135.64l.08-4.11,24.88-3.7c7.65-.5,15.57,7.47,15.74,15.13.19,8.51.09,18.91-1.17,25.2C279.37,180.81,269.54,182,269.54,182L269,194.68l-28.18-.79Z" style="fill:#ffbe9d"></path><path d="M279.87,152.31a1.64,1.64,0,0,1-1.64,1.58,1.57,1.57,0,0,1-1.63-1.54,1.65,1.65,0,0,1,1.64-1.59A1.58,1.58,0,0,1,279.87,152.31Z" style="fill:#263238"></path><path d="M280.17,148.26c-.21.2-1.41-.76-3.17-.83s-3.08.76-3.26.54.13-.48.71-.86a4.44,4.44,0,0,1,2.62-.7,4.24,4.24,0,0,1,2.51.93C280.11,147.77,280.28,148.17,280.17,148.26Z" style="fill:#263238"></path><path d="M263.61,151.66a1.64,1.64,0,0,1-1.64,1.59,1.58,1.58,0,0,1-1.63-1.55,1.64,1.64,0,0,1,1.64-1.58A1.57,1.57,0,0,1,263.61,151.66Z" style="fill:#263238"></path><path d="M262.88,147.89c-.21.2-1.41-.77-3.17-.83s-3.08.76-3.26.53.13-.47.71-.86a4.52,4.52,0,0,1,2.62-.69,4.3,4.3,0,0,1,2.51.92C262.82,147.4,263,147.79,262.88,147.89Z" style="fill:#263238"></path><path d="M268.73,161.18a11.48,11.48,0,0,1,2.88-.4c.45,0,.88-.1,1-.4a2.34,2.34,0,0,0-.24-1.35c-.38-1.1-.77-2.26-1.19-3.47-1.65-4.94-2.82-9-2.62-9.06s1.7,3.89,3.34,8.83c.4,1.22.78,2.38,1.13,3.49a2.63,2.63,0,0,1,.17,1.77,1.17,1.17,0,0,1-.77.63,3.06,3.06,0,0,1-.76.07A11.24,11.24,0,0,1,268.73,161.18Z" style="fill:#263238"></path><path d="M269.54,182.07a33.75,33.75,0,0,1-17.31-5.29s3.94,9.1,17.17,8.46Z" style="fill:#eb996e"></path><path d="M267.82,165.38a3.19,3.19,0,0,0-2.8-1.29,2.91,2.91,0,0,0-2,1,1.84,1.84,0,0,0-.22,2.09,2.13,2.13,0,0,0,2.28.68,6.8,6.8,0,0,0,2.3-1.25,2.11,2.11,0,0,0,.53-.5.61.61,0,0,0,0-.66" style="fill:#eb996e"></path><path d="M263.51,162.18c.29,0,.21,1.91,1.79,3.33s3.62,1.29,3.62,1.56-.47.35-1.33.34a4.76,4.76,0,0,1-3-1.2,4.08,4.08,0,0,1-1.38-2.78C263.15,162.63,263.38,162.17,263.51,162.18Z" style="fill:#263238"></path><path d="M263.62,141c-.2.47-1.94.17-4,.33s-3.76.66-4,.22c-.12-.21.19-.64.88-1.08a6.82,6.82,0,0,1,3-.92,6.72,6.72,0,0,1,3.11.5C263.33,140.4,263.7,140.79,263.62,141Z" style="fill:#263238"></path><path d="M279.73,143.15c-.32.38-1.52-.08-3-.16s-2.7.16-3-.27c-.12-.21.09-.6.65-1a4.33,4.33,0,0,1,4.79.35C279.72,142.54,279.88,143,279.73,143.15Z" style="fill:#263238"></path><path d="M286.36,127.53c-2.05,4.45-6.65,11.08-11.53,11.56A14.42,14.42,0,0,1,262,133.32c-.82,3.61-4.89,5.45-8.56,6a14.7,14.7,0,0,1-7.73-.7,7.71,7.71,0,0,1-4.77-5.8c-.34-2.6,3.49-8.87,6.08-9.29" style="fill:#263238"></path><path d="M246.62,192.62a10.05,10.05,0,0,1-7.35,8.91,7.11,7.11,0,0,1-13.77,2.76,8.75,8.75,0,0,0-1-2.41c-1.25-1.58-3.68-1.26-5.59-1.88-3.45-1.12-4.95-5.35-4.56-8.95a8.1,8.1,0,0,0,.1-2.14c-.21-1.44-1.34-2.55-2.18-3.74-3.47-4.92-2-12.06,1.82-16.69,1.28-1.54,2.9-3.15,2.78-5.15a10.65,10.65,0,0,0-1.09-3.17,9.09,9.09,0,0,1,2.46-9.92,2,2,0,0,0,1-2.32,10.63,10.63,0,0,1,9-11.36,2.52,2.52,0,0,0,.94-.21c.82-.42.84-1.55.95-2.47.28-2.42,2.16-6.94,4-8.53,5.14-4.39,10.12-.82,11.9.86,0,0,3.52,17.44,2.84,20.69s-3.07,11.35-2.12,15,2.49,11.22,1,14.53S246.62,192.62,246.62,192.62Z" style="fill:#263238"></path><path d="M227.39,136.5s.22.22.67.55a18.39,18.39,0,0,0,2,1.22,25,25,0,0,0,15.29,2.51,17.36,17.36,0,0,0,2.32-.51c.54-.16.83-.27.82-.31s-1.23.21-3.2.44a29.2,29.2,0,0,1-7.7-.2,28.4,28.4,0,0,1-7.36-2.28C228.48,137.09,227.44,136.42,227.39,136.5Z" style="fill:#455a64"></path><path d="M225.71,137.73a4.05,4.05,0,0,0,.37,1,8.52,8.52,0,0,0,.56,1.16,14.08,14.08,0,0,0,.85,1.49,22.84,22.84,0,0,0,2.76,3.52,25.76,25.76,0,0,0,4.2,3.51,26.74,26.74,0,0,0,4.88,2.48,23.23,23.23,0,0,0,4.32,1.14,14.89,14.89,0,0,0,1.7.2,8.61,8.61,0,0,0,1.29,0,4.55,4.55,0,0,0,1.1-.06c0-.11-1.57-.09-4-.57a25.59,25.59,0,0,1-4.2-1.23,28.18,28.18,0,0,1-4.76-2.47,27.85,27.85,0,0,1-4.14-3.4,24.62,24.62,0,0,1-2.79-3.38C226.41,139.14,225.81,137.68,225.71,137.73Z" style="fill:#455a64"></path><path d="M234.83,202.54s-.22,0-.61-.07a2.7,2.7,0,0,1-1.47-.87,3.73,3.73,0,0,1-.95-2.5,12.27,12.27,0,0,1,.66-3.62,7.82,7.82,0,0,0,.27-4.59c-.53-1.65-1.87-2.93-3-4.29a8.34,8.34,0,0,1-1.52-2.25,3.14,3.14,0,0,1,.08-2.63,5.91,5.91,0,0,1,2-2.1c.82-.6,1.72-1.12,2.59-1.77a5.6,5.6,0,0,0,2.09-2.49,3.88,3.88,0,0,0-.33-3.15c-1-1.81-2.52-3.13-2.89-4.87a5.89,5.89,0,0,1,1.3-4.67,20.67,20.67,0,0,1,3.06-3.28,21.4,21.4,0,0,0,2.58-2.76A8.63,8.63,0,0,0,240,154.1a5.38,5.38,0,0,0,.2-1.8,3.13,3.13,0,0,0-.11-.62,6.9,6.9,0,0,1-.3,2.35,12.76,12.76,0,0,1-4,5.07,20.48,20.48,0,0,0-3.17,3.3,8.6,8.6,0,0,0-1.23,2.28,5.09,5.09,0,0,0-.19,2.77c.42,2,2,3.32,2.91,5a3.34,3.34,0,0,1,.29,2.72,5.2,5.2,0,0,1-1.9,2.23c-.84.62-1.74,1.15-2.59,1.77a6.47,6.47,0,0,0-2.14,2.3,3.72,3.72,0,0,0-.09,3.06,9,9,0,0,0,1.63,2.4c1.22,1.37,2.5,2.6,3,4.09a7.62,7.62,0,0,1-.21,4.35,12.11,12.11,0,0,0-.6,3.73,4,4,0,0,0,1.11,2.64,2.74,2.74,0,0,0,1.6.83A1.34,1.34,0,0,0,234.83,202.54Z" style="fill:#455a64"></path><path d="M362.17,247.29l-64.48.52c-2.09,0-4.09,1-4.4,3.08l-7.05,47H253a1.94,1.94,0,1,0,0,3.87H359.1l7.25-49.6A4.22,4.22,0,0,0,362.17,247.29Z" style="fill:#e0e0e0"></path><path d="M362.17,247.29a3.22,3.22,0,0,1,1,.09,4.25,4.25,0,0,1,3.26,3.7,11.88,11.88,0,0,1-.23,2.65l-.93,6.54c-1.42,9.86-3.47,24.05-6,41.51l0,.17h-.17L256.19,302h-2.77a2.58,2.58,0,0,1-1.46-.28,2.17,2.17,0,0,1-1-1.16,2.2,2.2,0,0,1,1-2.68,2.72,2.72,0,0,1,1.45-.27h32.82l-.25.21c2.54-16.83,4.9-32.53,7-46.61a3.63,3.63,0,0,1,1.19-2.46,4.84,4.84,0,0,1,2.47-1.09,22.91,22.91,0,0,1,2.6-.09h2.53l9.7-.07,17.26-.11,24.56-.12,6.57,0h1.69l.58,0-.58,0-1.69,0-6.57.1-24.56.27-17.25.17-9.71.09-2.53,0a21.34,21.34,0,0,0-2.54.09,4.42,4.42,0,0,0-2.25,1,3.22,3.22,0,0,0-1.05,2.2l-6.95,46.63,0,.21h-33a2.21,2.21,0,0,0-1.2.21,1.67,1.67,0,0,0-.76,2,1.64,1.64,0,0,0,.75.89,2.09,2.09,0,0,0,1.21.21h2.77l102.91.06-.19.17c2.58-17.44,4.69-31.63,6.15-41.48.37-2.46.69-4.64,1-6.54a11.88,11.88,0,0,0,.26-2.61,4,4,0,0,0-.75-2,4.22,4.22,0,0,0-2.38-1.65A6.16,6.16,0,0,0,362.17,247.29Z" style="fill:#263238"></path><circle cx="327.19" cy="273.92" r="4.04" style="fill:#fff"></circle><path d="M288.85,301.32c.09,0,2.15-11.95,4.59-26.73s4.34-26.76,4.25-26.78-2.14,11.95-4.58,26.73S288.76,301.3,288.85,301.32Z" style="fill:#263238"></path></g><g id="freepik--Picture--inject-2"><path d="M463.73,214.91s0-.6,0-1.74,0-2.83,0-5c0-4.4,0-10.84-.05-19,0-16.4-.07-39.84-.12-68l.22.22-105.09,0h0l.26-.26c0,34.15,0,66.28,0,93.87l-.23-.23,76,.12,21.44.06,5.68,0,1.46,0h0l-1.44,0-5.63,0L434.8,215l-76.17.12h-.23v-.23c0-27.59,0-59.72,0-93.87v-.26h.27l105.09,0H464V121c0,28.27-.08,51.76-.11,68.19,0,8.18,0,14.61-.06,19,0,2.18,0,3.85,0,5S463.73,214.91,463.73,214.91Z" style="fill:#263238"></path><rect x="365.49" y="126.38" width="89.68" height="83.19" style="fill:#E74C3C"></rect><g style="opacity:0.30000000000000004"><path d="M419.73,145.13a6.19,6.19,0,1,0,6.45,6.19A6.32,6.32,0,0,0,419.73,145.13Z"></path><path d="M448.21,132.92l-75.76-.06c.08-.09-.82.78-.44.42V138c0,1.57,0,3.13,0,4.69V152c0,6.11,0,12.1,0,17.92,0,11.65,0,22.67,0,32.8V203h.37l55-.18,15.37-.09,4,0,1,0a1.06,1.06,0,0,0,.33,0l-.37,0-1.06,0-4.1,0-15.45-.09-16.93-.06h37.9c0,.14,0,.23,0,.23a.87.87,0,0,0,0-.3c0-.24,0-.54,0-.93,0-.87,0-2.09.05-3.68,0-3.28.05-8,.09-14.05.05-12.2.11-29.58.19-50.45v-.35Zm-18.34,39.55L417.54,187l-20.29-27.37-24.44,42.17c0-9.89,0-20.61,0-31.93,0-5.82,0-11.81,0-17.92q0-4.59,0-9.27v-9l75-.06c.07,20.62.14,37.8.18,49.88,0,6.06.08,10.83.1,14.13,0,1.61,0,2.86,0,3.74,0,.41,0,.72,0,1v.09Z"></path></g><rect x="355.88" y="117.58" width="5.51" height="5.51" style="fill:#263238"></rect><rect x="460.09" y="117.58" width="5.51" height="5.51" style="fill:#263238"></rect><rect x="460.09" y="211.25" width="5.51" height="5.51" style="fill:#263238"></rect><rect x="356.65" y="211.25" width="5.51" height="5.51" style="fill:#263238"></rect><rect x="356.65" y="164.96" width="5.51" height="5.51" style="fill:#263238"></rect><rect x="407.75" y="212.16" width="5.51" height="5.51" style="fill:#263238"></rect><rect x="460.98" y="162.21" width="5.51" height="5.51" style="fill:#263238"></rect><rect x="407.77" y="118.08" width="5.51" height="5.51" style="fill:#263238"></rect></g></svg>